<svg xmlns="http://www.w3.org/2000/svg" xmlns:xlink="http://www.w3.org/1999/xlink" id="Layer_1" x="0" y="0" version="1.1" viewBox="0 0 512 512" xml:space="preserve" style="enable-background:new 0 0 512 512"><g><path d="M432,176H80c-8.8,0-16-7.2-16-16l0,0c0-8.8,7.2-16,16-16h352c8.8,0,16,7.2,16,16l0,0C448,168.8,440.8,176,432,176z"/><path d="M432,272H80c-8.8,0-16-7.2-16-16l0,0c0-8.8,7.2-16,16-16h352c8.8,0,16,7.2,16,16l0,0C448,264.8,440.8,272,432,272z"/><path d="M432,368H80c-8.8,0-16-7.2-16-16l0,0c0-8.8,7.2-16,16-16h352c8.8,0,16,7.2,16,16l0,0C448,360.8,440.8,368,432,368z"/></g></svg>