<svg xmlns="http://www.w3.org/2000/svg" xmlns:xlink="http://www.w3.org/1999/xlink" id="Layer_1" x="0" y="0" version="1.1" viewBox="0 0 512 512" xml:space="preserve" style="enable-background:new 0 0 512 512"><g><path d="M64,199.9v208.2c0,4.4,3.5,7.9,7.9,7.9h96.2c4.4,0,7.9-3.5,7.9-7.9V199.9c0-4.4-3.5-7.9-7.9-7.9H71.9 C67.5,192,64,195.5,64,199.9z"/><path d="M199.9,96c-4.4,0-7.9,3.5-7.9,7.9V416h1h119.1c4.4,0,7.9-3.5,7.9-7.9V103.9c0-4.4-3.5-7.9-7.9-7.9H199.9z"/><path d="M440.1,256h-96.2c-4.4,0-7.9,3.5-7.9,7.9v144.2c0,4.4,3.5,7.9,7.9,7.9h96.2c4.4,0,7.9-3.5,7.9-7.9V263.9 C448,259.5,444.5,256,440.1,256z"/></g></svg>