<svg xmlns="http://www.w3.org/2000/svg" xmlns:xlink="http://www.w3.org/1999/xlink" id="Layer_1" x="0" y="0" version="1.1" viewBox="0 0 512 512" xml:space="preserve" style="enable-background:new 0 0 512 512"><g><path d="M299.3,376c6.2-14.1,20.3-24,36.7-24s30.5,9.9,36.7,24H448c8.8,0,16,7.2,16,16l0,0c0,8.8-7.2,16-16,16h-75.3 c-6.2,14.1-20.3,24-36.7,24s-30.5-9.9-36.7-24H64c-8.8,0-16-7.2-16-16l0,0c0-8.8,7.2-16,16-16H299.3z"/><path d="M139.3,240c6.2-14.1,20.3-24,36.7-24s30.5,9.9,36.7,24H448c8.8,0,16,7.2,16,16l0,0c0,8.8-7.2,16-16,16H212.7 c-6.2,14.1-20.3,24-36.7,24s-30.5-9.9-36.7-24H64c-8.8,0-16-7.2-16-16l0,0c0-8.8,7.2-16,16-16H139.3z"/><path d="M299.3,104c6.2-14.1,20.3-24,36.7-24s30.5,9.9,36.7,24H448c8.8,0,16,7.2,16,16l0,0c0,8.8-7.2,16-16,16h-75.3 c-6.2,14.1-20.3,24-36.7,24s-30.5-9.9-36.7-24H64c-8.8,0-16-7.2-16-16l0,0c0-8.8,7.2-16,16-16H299.3z"/></g></svg>