<svg xmlns="http://www.w3.org/2000/svg" xmlns:xlink="http://www.w3.org/1999/xlink" id="Layer_1" x="0" y="0" version="1.1" viewBox="0 0 512 512" xml:space="preserve" style="enable-background:new 0 0 512 512"><path d="M418.3,80l-110.5,0c-7.5,0-13.7,6.1-13.7,13.7l0,0.2c0,7.5,6.1,13.7,13.7,13.7h76.5L107.6,384.3l0-76.5	c0-7.5-6.1-13.7-13.7-13.7h-0.2c-7.5,0-13.7,6.1-13.7,13.7v110.5c0,7.5,6.1,13.7,13.7,13.7l110.5,0c7.5,0,13.7-6.1,13.7-13.7l0-0.2	c0-7.5-6.1-13.7-13.7-13.7h-76.5l276.7-276.7v76.5c0,7.5,6.1,13.7,13.7,13.7h0.2c7.5,0,13.7-6.1,13.7-13.7l0-110.5	C432,86.1,425.9,80,418.3,80z"/></svg>