<svg xmlns="http://www.w3.org/2000/svg" xmlns:xlink="http://www.w3.org/1999/xlink" id="Layer_1" x="0" y="0" enable-background="new 0 0 512 512" version="1.1" viewBox="0 0 512 512" xml:space="preserve"><g><rect width="256" height="128" x="128" y="176"/><path d="M448,96H64c-8.8,0-16,7.2-16,16v256c0,8.8,6.9,16,15.8,16H448c8.8,0,16-7.2,16-16V112C464,103.2,456.8,96,448,96z M416,336 H96V144h320V336z"/><polygon points="80 464 137 464 159.5 400 103.1 400"/><polygon points="279.4 48 232.6 48 221.1 80 290.9 80"/><polygon points="375 464 432 464 409 400 352.5 400"/><rect width="48" height="32" x="232" y="400"/></g></svg>