<svg xmlns="http://www.w3.org/2000/svg" xmlns:xlink="http://www.w3.org/1999/xlink" id="Layer_1" x="0" y="0" enable-background="new 0 0 512 512" version="1.1" viewBox="0 0 512 512" xml:space="preserve"><path d="M74.6,256c0-38.3,31.1-69.4,69.4-69.4h88V144h-88c-61.8,0-112,50.2-112,112s50.2,112,112,112h88v-42.6h-88	C105.7,325.4,74.6,294.3,74.6,256z M160,278h192v-44H160V278z M368,144h-88v42.6h88c38.3,0,69.4,31.1,69.4,69.4	s-31.1,69.4-69.4,69.4h-88V368h88c61.8,0,112-50.2,112-112S429.8,144,368,144z"/></svg>